<?xml version="1.0" encoding="UTF-8"?>
<svg version="1.1" xmlns="http://www.w3.org/2000/svg" width="2000" height="1247">
<path d="M0 0 C42.9 0 85.8 0 130 0 C141.45405159 32.07134446 141.45405159 32.07134446 144.97265625 42.171875 C145.80890491 44.56600437 146.64516849 46.96012852 147.48144531 49.35424805 C148.1125824 51.16280777 148.1125824 51.16280777 148.75646973 53.00790405 C151.039436 59.54916043 153.32560176 66.08929686 155.61328125 72.62890625 C155.84296474 73.2855105 156.07264824 73.94211475 156.30929184 74.6186161 C160.75371555 87.32098011 165.24488285 100.00654748 169.75 112.6875 C175.76610821 129.62356285 181.68988504 146.5898354 187.56359863 163.57577515 C192.80914544 178.74117957 198.12645513 193.87949667 203.5 209 C209.59978854 226.16406489 215.60968622 243.35719456 221.5625 260.57275391 C226.80842317 275.73916137 232.12609653 290.87848762 237.5 306 C243.59978854 323.16406489 249.60968622 340.35719456 255.5625 357.57275391 C260.80842317 372.73916137 266.12609653 387.87848762 271.5 403 C277.60014362 420.16506405 283.61053454 437.35914788 289.56350708 454.57577515 C295.12712353 470.66133877 300.78017988 486.71330242 306.48202515 502.75033569 C313.13096075 521.4592002 319.64284783 540.21423084 326.11303711 558.9855957 C326.65935287 560.56939026 326.65935287 560.56939026 327.21670532 562.18518066 C327.8908406 564.1401124 328.56415591 566.09532721 329.23641968 568.05090332 C331.42359774 574.3950375 333.7058872 580.6911898 336 587 C358.11 587.33 380.22 587.66 403 588 C403 613.41 403 638.82 403 665 C331.39 665 259.78 665 186 665 C186 639.59 186 614.18 186 588 C204.15 588 222.3 588 241 588 C239.02 582.72 237.04 577.44 235 572 C233.67372671 568.25449001 232.36037945 564.50894004 231.07421875 560.75 C230.36142443 558.68065892 229.64861453 556.61132321 228.93579102 554.54199219 C228.56962677 553.47638062 228.20346252 552.41076904 227.82620239 551.31286621 C220.70017026 530.58085474 213.46293426 509.89064551 206.09838867 489.2421875 C200.27031173 472.86866086 194.65127217 456.44006449 189 440 C105.18 440 21.36 440 -65 440 C-78.30814113 479.13240481 -78.30814113 479.13240481 -91.57485962 518.27874756 C-99.32986147 541.20433433 -107.12662845 564.11473338 -115 587 C-92.89 587.33 -70.78 587.66 -48 588 C-48 613.41 -48 638.82 -48 665 C-119.28 665 -190.56 665 -264 665 C-264 639.59 -264 614.18 -264 588 C-244.86 588 -225.72 588 -206 588 C-205.01 584.37 -204.02 580.74 -203 577 C-202.33061246 574.90097966 -201.63825886 572.80894805 -200.90966797 570.72973633 C-200.52362396 569.6222554 -200.13757996 568.51477448 -199.73983765 567.37373352 C-199.3281131 566.20497177 -198.91638855 565.03621002 -198.4921875 563.83203125 C-198.0498729 562.56795345 -197.60787484 561.30376486 -197.16616821 560.03947449 C-195.98564302 556.66366664 -194.80036023 553.28954797 -193.61404419 549.91577148 C-192.61607126 547.07560572 -191.62101048 544.23442331 -190.62594986 541.39323616 C-184.28896904 523.3001183 -177.90670087 505.22314201 -171.49060059 487.15792847 C-165.30883325 469.75110995 -159.20735661 452.31672965 -153.125 434.875 C-151.24373548 429.48038296 -149.36239442 424.08579269 -147.48046875 418.69140625 C-147.24885355 418.02749815 -147.01723835 417.36359005 -146.77860451 416.67956352 C-141.63948699 401.95092964 -136.46228687 387.23577343 -131.27844238 372.52282715 C-126.7546577 359.68251289 -122.23948146 346.83926667 -117.74609375 333.98828125 C-117.52526878 333.35674385 -117.30444382 332.72520645 -117.07692719 332.07453156 C-115.95784447 328.8739272 -114.83890635 325.67327232 -113.72003174 322.47259521 C-107.03998527 303.36359314 -100.33674486 284.26335139 -93.5625 265.1875 C-87.02263703 246.77107668 -80.56025638 228.32816549 -74.125 209.875 C-73.89149086 209.20541008 -73.65798172 208.53582016 -73.41739655 207.84593964 C-73.18388237 207.17633461 -72.95036819 206.50672958 -72.70977783 205.8168335 C-65.92961327 186.37476608 -59.12083217 166.94310753 -52.27844238 147.52282715 C-46.62763458 131.48356952 -40.99983868 115.43639264 -35.38813019 99.38342381 C-28.50400517 79.69065376 -21.60991848 60.00149835 -14.65338135 40.33416748 C-13.94029198 38.3181031 -13.22766655 36.30187456 -12.51556396 34.28546143 C-11.53415955 31.50742942 -10.55062735 28.73016017 -9.56640625 25.953125 C-9.15517769 24.78808945 -9.15517769 24.78808945 -8.73564148 23.59951782 C-5.92683605 15.69117436 -2.94846552 7.86257472 0 0 Z M60 72 C59.79527573 72.60608597 59.59055145 73.21217194 59.37962341 73.83662415 C56.73545228 81.66300081 54.08778797 89.48819265 51.4375 97.3125 C51.22113766 97.95127453 51.00477531 98.59004906 50.78185654 99.24818039 C45.20362477 115.71400631 39.57920776 132.16153911 33.8125 148.5625 C26.76774908 168.60341811 19.98796701 188.73212097 13.20387268 208.86231995 C7.07636842 227.04321831 0.93683225 245.21626318 -5.4375 263.3125 C-12.57800207 283.58391835 -19.44159228 303.94852936 -26.3125 324.3125 C-26.59613781 325.15310093 -26.87977562 325.99370186 -27.17200851 326.85977554 C-33.60919499 345.92210624 -33.60919499 345.92210624 -40 365 C26.99 365 93.98 365 163 365 C161.07626141 358.58753804 159.11857124 352.23751626 156.953125 345.91015625 C156.66553314 345.06547791 156.37794128 344.22079956 156.08163452 343.3505249 C155.1398674 340.58712446 154.19512162 337.82475481 153.25 335.0625 C152.92086609 334.09871429 152.59173218 333.13492859 152.25262451 332.14193726 C145.8960357 313.52986506 139.42579294 294.95830657 132.93151855 276.39393616 C129.10042685 265.43643769 125.30136232 254.46783864 121.5 243.5 C116.13927807 228.03667023 110.76778518 212.57717867 105.375 197.125 C105.06850525 196.24676575 104.7620105 195.36853149 104.44622803 194.46368408 C102.29810144 188.30890758 100.14915283 182.15441822 98 176 C95.84986427 169.8427671 93.70008275 163.68541089 91.55102539 157.52780151 C90.93646488 155.76725902 90.32172047 154.00678071 89.70678711 152.24636841 C85.93421542 141.44629283 82.18212959 130.63941899 78.453125 119.82421875 C77.30183301 116.48962394 76.1502974 113.15511333 74.99871826 109.82061768 C74.25905978 107.67604597 73.52078203 105.53099747 72.78399658 103.38543701 C67.35585908 87.51515322 67.35585908 87.51515322 61 72 C60.67 72 60.34 72 60 72 Z " fill="#FAFAF8" transform="translate(1215,291)"/>
<path d="M0 0 C0.88465691 -0.00282738 1.76931381 -0.00565475 2.6807785 -0.00856781 C7.38077581 -0.02348105 12.08074315 -0.03275496 16.78076172 -0.03710938 C20.58912947 -0.04145563 24.39726576 -0.05520776 28.20556641 -0.078125 C52.09113967 -0.21887102 75.56177425 0.40177095 99.296875 3.203125 C100.20705383 3.30790161 101.11723267 3.41267822 102.05499268 3.52062988 C106.7965001 4.07593621 111.51535772 4.7277731 116.234375 5.453125 C116.91247223 5.55539398 117.59056946 5.65766296 118.28921509 5.76303101 C178.57006315 14.89727585 237.36618959 32.71442427 292.296875 59.203125 C293.0094043 59.54617676 293.72193359 59.88922852 294.45605469 60.24267578 C298.34798665 62.12941256 302.20686843 64.07448345 306.05224609 66.05419922 C308.64333884 67.38046444 311.24583085 68.68320107 313.84765625 69.98828125 C337.03566374 81.72089581 359.09604395 95.17390918 380.296875 110.203125 C381.56747685 111.09408022 382.83830148 111.98471782 384.109375 112.875 C395.49967952 120.89307382 406.47147861 129.43970887 417.296875 138.203125 C418.19148437 138.92242187 419.08609375 139.64171875 420.0078125 140.3828125 C425.47382054 144.80767615 430.77710286 149.36272514 435.9765625 154.09765625 C437.99841684 155.93230185 440.04366022 157.73081286 442.109375 159.515625 C451.62062762 167.84032531 460.72112317 176.52941224 469.671875 185.453125 C470.51588867 186.29254639 471.35990234 187.13196777 472.22949219 187.99682617 C476.57918312 192.35728367 480.78188851 196.78533223 484.79589844 201.45703125 C487.39020154 204.47499738 490.10162677 207.38894571 492.79296875 210.3203125 C494.296875 212.203125 494.296875 212.203125 494.296875 214.203125 C457.26000666 217.80111271 457.26000666 217.80111271 447.73951721 211.06361389 C442.42661695 206.66917363 438.26026365 201.29022536 434.24243164 195.72851562 C431.365261 191.9938622 427.92919215 189.17170259 424.296875 186.203125 C423.28223581 185.28757474 422.2750524 184.3636588 421.27734375 183.4296875 C415.76903534 178.29887155 410.18625416 173.35220381 404.31640625 168.6328125 C402.0902034 166.84148239 399.88199384 165.03574197 397.68359375 163.2109375 C387.86321827 155.08841393 377.72742998 147.52242477 367.296875 140.203125 C366.55099121 139.67750977 365.80510742 139.15189453 365.03662109 138.61035156 C291.44704666 86.92111082 206.85617313 52.32205572 24.546875 31.015625 C23.37024292 31.01622925 22.19361084 31.0168335 20.98132324 31.01745605 C3.32695955 31.04205684 -14.13248949 31.36224706 -31.703125 33.203125 C-32.94626465 33.32671387 -34.1894043 33.45030273 -35.47021484 33.57763672 C-101.19649262 40.2579594 -166.34707375 57.32746395 -226.00195312 85.91650391 C-228.66773608 87.18626856 -231.34651088 88.42323971 -234.03125 89.65234375 C-246.42757926 95.36867836 -258.29742151 101.8371213 -270.09765625 108.69384766 C-272.38479985 110.01872788 -274.68128202 111.32423306 -276.984375 112.62109375 C-297.46583112 124.26044556 -317.00436953 137.90434054 -335.703125 152.203125 C-336.34523926 152.69361328 -336.98735352 153.18410156 -337.64892578 153.68945312 C-348.97147967 162.37864875 -359.87083045 171.54637009 -370.4296875 181.1484375 C-372.55857809 183.07248638 -374.71731642 184.95458312 -376.890625 186.828125 C-380.01429309 189.54490245 -382.93253147 192.4056113 -385.82788086 195.36230469 C-387.63608047 197.13731121 -389.50530111 198.77597956 -391.4375 200.4140625 C-395.72275597 204.14199887 -399.59800751 208.16247366 -403.453125 212.328125 C-404.14414307 213.06949707 -404.83516113 213.81086914 -405.54711914 214.57470703 C-406.9441364 216.07486629 -408.33943157 217.57663127 -409.73291016 219.08007812 C-411.51199907 220.99717319 -413.29899111 222.90640242 -415.08984375 224.8125 C-421.24923655 231.38954429 -427.06427165 238.17298594 -432.703125 245.203125 C-433.6858915 246.39585842 -434.67037431 247.58717901 -435.65625 248.77734375 C-460.68484 279.07591924 -481.83380303 312.09738673 -500.35839844 346.71044922 C-501.52790908 348.87833296 -502.72061898 351.02982265 -503.9296875 353.17578125 C-516.93193498 376.5234796 -527.04665094 401.97519362 -535.703125 427.203125 C-535.92335327 427.84296326 -536.14358154 428.48280151 -536.3704834 429.14202881 C-553.37112893 478.63489909 -564.2150341 529.93165073 -567.703125 582.203125 C-567.79070068 583.48227783 -567.87827637 584.76143066 -567.96850586 586.0793457 C-568.75838717 598.34940199 -568.90405785 610.59782182 -568.890625 622.890625 C-568.89002075 623.91947815 -568.8894165 624.9483313 -568.88879395 626.00836182 C-568.7383737 720.86667201 -545.59573458 815.05850281 -492.703125 915.203125 C-492.21054199 916.07243652 -491.71795898 916.94174805 -491.21044922 917.83740234 C-478.26802143 940.60687546 -463.60976589 962.40174925 -447.703125 983.203125 C-446.96739258 984.16629639 -446.96739258 984.16629639 -446.21679688 985.14892578 C-437.52652996 996.47287563 -428.35801992 1007.37418635 -418.75390625 1017.93359375 C-416.85084412 1020.03964918 -414.99158679 1022.17632969 -413.140625 1024.328125 C-410.12770545 1027.7933304 -406.91807769 1031.00892103 -403.64453125 1034.2265625 C-401.87262152 1036.03055913 -400.2567601 1037.88545621 -398.640625 1039.828125 C-393.47637817 1045.82569347 -387.49745819 1051.03613614 -381.67724609 1056.38183594 C-379.77525848 1058.13657593 -377.88717091 1059.90488839 -376.00390625 1061.6796875 C-369.12127747 1068.15640561 -362.08752847 1074.29756095 -354.703125 1080.203125 C-353.51154391 1081.18440722 -352.32153904 1082.16760545 -351.1328125 1083.15234375 C-321.2845255 1107.81356935 -288.71731183 1128.78057007 -254.703125 1147.203125 C-253.53571777 1147.84217773 -253.53571777 1147.84217773 -252.34472656 1148.49414062 C-181.4601539 1187.18972214 -100.19928378 1209.57014507 -19.703125 1215.203125 C-18.55650391 1215.28852539 -17.40988281 1215.37392578 -16.22851562 1215.46191406 C-3.35406561 1216.36006378 9.52029571 1216.44633579 22.421875 1216.453125 C23.58305847 1216.45379974 24.74424194 1216.45447449 25.94061279 1216.45516968 C106.14818928 1216.38169814 185.60562349 1199.95879864 340.296875 1125.203125 C341.04533691 1124.73922363 341.79379883 1124.27532227 342.56494141 1123.79736328 C358.07603706 1114.16992357 372.96443668 1103.50088888 387.296875 1092.203125 C388.42104848 1091.33486631 389.54607465 1090.46771072 390.671875 1089.6015625 C403.254499 1079.88231466 415.14667975 1069.3994735 426.79785156 1058.58886719 C428.36152759 1057.14335821 429.93372911 1055.70760237 431.5078125 1054.2734375 C432.60419312 1053.27086226 433.70054791 1052.26825877 434.796875 1051.265625 C436.31256437 1049.88235473 437.82989367 1048.50070978 439.36425781 1047.13818359 C441.46842259 1045.11382478 441.46842259 1045.11382478 443.62792969 1042.17822266 C447.73625158 1037.06774966 451.36561224 1033.1503438 458.10546875 1032.23657227 C463.60167148 1031.87960167 469.05448206 1032.15152235 474.546875 1032.453125 C476.46727969 1032.51343148 478.3878679 1032.56816438 480.30859375 1032.6171875 C484.97595222 1032.7483133 489.63435195 1032.954644 494.296875 1033.203125 C492.70896851 1036.53076794 490.92865658 1038.91805819 488.421875 1041.640625 C487.6071875 1042.5275 486.7925 1043.414375 485.953125 1044.328125 C485.0765625 1045.276875 484.2 1046.225625 483.296875 1047.203125 C482.4409375 1048.151875 481.585 1049.100625 480.703125 1050.078125 C474.50235347 1056.92874449 468.06995755 1063.53419587 461.546875 1070.078125 C460.75490723 1070.87468506 459.96293945 1071.67124512 459.14697266 1072.49194336 C454.92869387 1076.69919339 450.63062418 1080.744407 446.11474609 1084.63037109 C443.51050274 1086.88346479 441.00421575 1089.23097264 438.484375 1091.578125 C433.89128125 1095.81623201 429.18417278 1099.85912693 424.3125 1103.77734375 C422.10045284 1105.55672365 419.90480661 1107.34943053 417.71875 1109.16015625 C393.80946299 1128.90708547 368.05090042 1146.52816693 341.296875 1162.203125 C340.06493408 1162.92508057 340.06493408 1162.92508057 338.80810547 1163.66162109 C288.88277671 1192.78706555 235.35380495 1214.94486359 179.296875 1229.203125 C178.1728125 1229.48994141 177.04875 1229.77675781 175.890625 1230.07226562 C134.02852709 1240.60664224 90.70521759 1247.31108098 47.49609375 1247.40625 C46.61235392 1247.40907738 45.72861408 1247.41190475 44.81809425 1247.41481781 C40.12457623 1247.42971869 35.43108811 1247.43900083 30.73754883 1247.44335938 C26.93601697 1247.44770803 23.13471668 1247.46147163 19.33325195 1247.484375 C-4.52774782 1247.6251162 -27.99472467 1247.04365871 -51.703125 1244.203125 C-52.61871185 1244.09363525 -53.53429871 1243.98414551 -54.47763062 1243.87133789 C-59.21559319 1243.28608547 -63.92784708 1242.59313074 -68.640625 1241.828125 C-70.01453317 1241.61078827 -71.38847635 1241.39367276 -72.76245117 1241.17675781 C-76.74661132 1240.54128719 -80.72514605 1239.87622658 -84.703125 1239.203125 C-85.82170898 1239.01524414 -86.94029297 1238.82736328 -88.09277344 1238.63378906 C-162.06840229 1225.95418998 -234.75537532 1198.45439009 -298.703125 1159.203125 C-299.52731934 1158.70006836 -300.35151367 1158.19701172 -301.20068359 1157.67871094 C-318.56776592 1147.03493525 -335.59454146 1135.67801944 -351.703125 1123.203125 C-352.77541892 1122.38590099 -353.84836501 1121.56953217 -354.921875 1120.75390625 C-370.98888756 1108.51898205 -386.34148624 1095.48261828 -401.09423828 1081.69873047 C-402.70401519 1080.20229749 -404.32453476 1078.7185055 -405.94921875 1077.23828125 C-415.63390896 1068.40312527 -425.2839568 1059.42404721 -433.7734375 1049.4140625 C-435.91388868 1046.96164272 -438.13077188 1044.59308865 -440.359375 1042.22094727 C-446.4297486 1035.75651674 -452.16257123 1029.13111429 -457.703125 1022.203125 C-458.68440722 1021.01154391 -459.66760545 1019.82153904 -460.65234375 1018.6328125 C-490.66574851 982.29765045 -515.48392361 942.21468398 -536.703125 900.203125 C-537.38689209 898.85178467 -537.38689209 898.85178467 -538.08447266 897.47314453 C-574.18408485 825.54671318 -594.51075941 745.37055113 -600.890625 624.515625 C-600.89002075 623.58903076 -600.8894165 622.66243652 -600.88879395 621.70776367 C-600.74813933 541.38368757 -585.47671389 460.84688509 -549.703125 375.203125 C-549.27708984 374.23826172 -548.85105469 373.27339844 -548.41210938 372.27929688 C-528.8998076 328.36939111 -505.17509404 286.25969356 -475.703125 248.203125 C-474.88590099 247.13083108 -474.06953217 246.05788499 -473.25390625 244.984375 C-461.0013588 228.89421944 -447.9398773 213.53478457 -434.14257812 198.75585938 C-431.86770785 196.30196267 -429.6341794 193.81063786 -427.390625 191.328125 C-418.98087175 182.15052471 -410.29912525 173.03074235 -400.77734375 164.99609375 C-398.49231326 163.0208979 -396.28964129 160.97132406 -394.08325195 158.90917969 C-387.82604888 153.06443036 -381.38436817 147.56213001 -374.703125 142.203125 C-373.51039158 141.2203585 -372.31907099 140.23587569 -371.12890625 139.25 C-298.80867079 79.51914799 -211.75988003 36.91742291 -31.703125 1.203125 C-30.78415939 1.11579605 -29.86519379 1.0284671 -28.91838074 0.93849182 C-19.27486518 0.09373796 -9.67219323 0.02123695 0 0 Z " fill="#FBFBF8" transform="translate(601.703125,-0.203125)"/>
<path d="M0 0 C4.95 0 9.9 0 15 0 C15 6.93 15 13.86 15 21 C19.78516113 20.96072388 19.78516113 20.96072388 24.66699219 20.9206543 C35.19617797 20.83787956 45.72537796 20.7826059 56.2548027 20.74093914 C62.64009533 20.71482347 69.02505517 20.67938836 75.41015625 20.62280273 C81.56987029 20.56855491 87.72926385 20.53859432 93.8891983 20.52561378 C96.24162086 20.51636103 98.59402549 20.49829289 100.94631195 20.47134972 C104.23640622 20.43515688 107.52516902 20.43005075 110.81542969 20.43237305 C112.28062546 20.40540848 112.28062546 20.40540848 113.77542114 20.37789917 C120.37045424 20.42841158 120.37045424 20.42841158 123.6081543 23.36804199 C125.19026624 26.35979043 125.4658672 28.15244302 125.390625 31.51953125 C125.37128906 33.0519043 125.37128906 33.0519043 125.3515625 34.61523438 C125.30128906 36.19788086 125.30128906 36.19788086 125.25 37.8125 C125.23195313 38.88693359 125.21390625 39.96136719 125.1953125 41.06835938 C125.14829392 43.71315465 125.0825916 46.35611589 125 49 C125.67256836 49.1861084 126.34513672 49.3722168 127.03808594 49.56396484 C127.92786133 49.81871582 128.81763672 50.0734668 129.734375 50.3359375 C130.61319336 50.5839209 131.49201172 50.8319043 132.39746094 51.08740234 C140.35802481 53.87882709 145.02390489 59.8281649 149 67 C149.34160156 67.59167969 149.68320312 68.18335938 150.03515625 68.79296875 C153.75410732 76.62871218 153.34200341 88.31699013 150.5625 96.375 C145.5788202 106.68965436 137.55350131 112.94982633 127 117 C126.34 117 125.68 117 125 117 C125 121.29 125 125.58 125 130 C127.1339624 129.97643433 127.1339624 129.97643433 129.31103516 129.95239258 C134.60003984 129.89800409 139.88901989 129.86361721 145.17822266 129.83520508 C147.46537435 129.82013884 149.75249725 129.79968203 152.03955078 129.77368164 C155.33112707 129.73720394 158.62232062 129.72025166 161.9140625 129.70703125 C162.93303619 129.69154739 163.95200989 129.67606354 165.00186157 129.66011047 C170.37125126 129.65884383 174.4461022 129.79219047 179 133 C180.00005304 136.00015912 180.11575585 137.97423756 180.09765625 141.10546875 C180.09443359 142.08837891 180.09121094 143.07128906 180.08789062 144.08398438 C180.07951172 145.10814453 180.07113281 146.13230469 180.0625 147.1875 C180.05798828 148.22326172 180.05347656 149.25902344 180.04882812 150.32617188 C180.0370401 152.88417266 180.02058515 155.44205733 180 158 C180.8878418 157.97905273 181.77568359 157.95810547 182.69042969 157.93652344 C185.99294455 157.86824323 189.2947067 157.8181513 192.59765625 157.78027344 C194.02551121 157.76019018 195.45328425 157.73291748 196.88085938 157.69824219 C198.93640368 157.64957331 200.99085855 157.62700033 203.046875 157.609375 C204.28276367 157.58842773 205.51865234 157.56748047 206.79199219 157.54589844 C210 158 210 158 212.39916992 159.3684082 C214.94463832 163.5528834 214.59044673 167.68914529 214.56640625 172.49609375 C214.57260483 173.5217897 214.57880341 174.54748566 214.58518982 175.60426331 C214.59228929 177.77205456 214.5891118 179.93990032 214.57641602 182.10766602 C214.56256307 185.4224096 214.59660562 188.73432355 214.63476562 192.04882812 C214.63571695 194.15625069 214.63385729 196.26367679 214.62890625 198.37109375 C214.64216446 199.36080673 214.65542267 200.35051971 214.66908264 201.370224 C214.65654953 202.29791092 214.64401642 203.22559784 214.63110352 204.18139648 C214.63014175 204.99317856 214.62917999 205.80496063 214.62818909 206.64134216 C213.66584375 210.25465447 211.93273419 211.74415236 209 214 C205.66101074 214.62818909 205.66101074 214.62818909 201.81054688 214.63110352 C200.75348289 214.64183647 200.75348289 214.64183647 199.67506409 214.65278625 C197.35562451 214.66963574 195.03812827 214.6502958 192.71875 214.62890625 C191.10119467 214.62973531 189.48363942 214.63219609 187.86608887 214.63621521 C184.47996591 214.63907061 181.09450535 214.62439813 177.70849609 214.59692383 C173.37383835 214.56284073 169.04036476 214.56886128 164.70565033 214.5875864 C161.36666033 214.59816836 158.02794462 214.58920787 154.6889801 214.57420158 C153.09103714 214.56902804 151.49306544 214.56949153 149.89512634 214.57574654 C147.65927813 214.58121355 145.42510975 214.56077975 143.18945312 214.53344727 C141.91880005 214.52724869 140.64814697 214.52105011 139.33898926 214.5146637 C135.3781214 213.90414514 133.70558154 212.93387616 131 210 C130.37181091 207.72363281 130.37181091 207.72363281 130.36889648 205.203125 C130.35636337 204.2553418 130.34383026 203.30755859 130.33091736 202.33105469 C130.35080467 200.80593262 130.35080467 200.80593262 130.37109375 199.25 C130.36868179 198.19973633 130.36626984 197.14947266 130.36378479 196.06738281 C130.36476369 193.84826886 130.37816735 191.62913062 130.40307617 189.41015625 C130.43737707 186.01217752 130.42373821 182.61679972 130.40429688 179.21875 C130.41119539 177.06248892 130.42086781 174.90623456 130.43359375 172.75 C130.42863388 171.73325195 130.42367401 170.71650391 130.41856384 169.66894531 C130.53382085 162.77096946 130.53382085 162.77096946 132.60083008 159.35253906 C135.86481591 157.5124575 138.21459042 157.54601001 141.953125 157.609375 C142.61334656 157.61503479 143.27356812 157.62069458 143.95379639 157.62652588 C146.05328263 157.6488377 148.1510337 157.69901686 150.25 157.75 C151.6770586 157.77007206 153.10414408 157.78832161 154.53125 157.8046875 C158.02203219 157.84527799 161.50908481 157.9235566 165 158 C165 153.71 165 149.42 165 145 C133.65 145 102.3 145 70 145 C70 149.29 70 153.58 70 158 C72.11921875 157.95359375 74.2384375 157.9071875 76.421875 157.859375 C78.4804444 157.82815632 80.53898717 157.80388203 82.59765625 157.78027344 C84.02551121 157.76019018 85.45328425 157.73291748 86.88085938 157.69824219 C88.93640368 157.64957331 90.99085855 157.62700033 93.046875 157.609375 C94.28276367 157.58842773 95.51865234 157.56748047 96.79199219 157.54589844 C100 158 100 158 102.39916992 159.35253906 C104.97160163 163.60683973 104.59020505 167.87136641 104.56640625 172.75 C104.57260483 173.80026367 104.57880341 174.85052734 104.58518982 175.93261719 C104.59228926 178.15168328 104.58911186 180.37080262 104.57641602 182.58984375 C104.56254907 185.98797413 104.59662294 189.38335219 104.63476562 192.78125 C104.63571679 194.93750067 104.63385812 197.0937548 104.62890625 199.25 C104.64216446 200.26674805 104.65542267 201.28349609 104.66908264 202.33105469 C104.65654953 203.27883789 104.64401642 204.22662109 104.63110352 205.203125 C104.63014175 206.03489258 104.62917999 206.86666016 104.62818909 207.72363281 C103.67515837 211.17712779 102.03593687 212.19137742 99 214 C95.66101074 214.5146637 95.66101074 214.5146637 91.81054688 214.53344727 C91.10583755 214.54206284 90.40112823 214.55067841 89.67506409 214.55955505 C87.35591439 214.58217598 85.03797679 214.57548467 82.71875 214.56640625 C81.10119265 214.5716433 79.48363836 214.57792008 77.86608887 214.58518982 C74.48007816 214.59558656 71.09448791 214.59104285 67.70849609 214.57641602 C63.37372335 214.5592214 59.04027529 214.58273418 54.70565033 214.61790562 C51.36667126 214.63988633 48.02800893 214.63843677 44.6889801 214.6301403 C43.09101406 214.62932129 41.49302465 214.63617535 39.89512634 214.65091133 C37.65907792 214.66837324 35.42540675 214.65380639 33.18945312 214.63110352 C31.91880005 214.63014175 30.64814697 214.62917999 29.33898926 214.62818909 C25.07247106 213.82549702 23.5957521 212.42984855 21 209 C20.37181091 206.64134216 20.37181091 206.64134216 20.36889648 204.18139648 C20.35636337 203.25370956 20.34383026 202.32602264 20.33091736 201.370224 C20.34417557 200.38051102 20.35743378 199.39079803 20.37109375 198.37109375 C20.36747581 196.83111473 20.36747581 196.83111473 20.36378479 195.26002502 C20.36476258 193.09396494 20.37813989 190.92787966 20.40307617 188.76196289 C20.4374196 185.44526439 20.42372196 182.13122528 20.40429688 178.81445312 C20.41119441 176.70832199 20.42086595 174.60219772 20.43359375 172.49609375 C20.42863388 171.50435654 20.42367401 170.51261932 20.41856384 169.49082947 C20.53374519 162.76647256 20.53374519 162.76647256 22.60083008 159.3684082 C25.86457911 157.5068723 28.20483281 157.54584462 31.953125 157.609375 C32.94345734 157.61786469 32.94345734 157.61786469 33.95379639 157.62652588 C36.05328263 157.6488377 38.1510337 157.69901686 40.25 157.75 C41.6770586 157.77007206 43.10414408 157.78832161 44.53125 157.8046875 C48.02139293 157.84868307 51.51052699 157.91767124 55 158 C54.98952637 157.35450195 54.97905273 156.70900391 54.96826172 156.04394531 C54.92662728 153.11266998 54.90065025 150.18145696 54.875 147.25 C54.85824219 146.23421875 54.84148437 145.2184375 54.82421875 144.171875 C54.81777344 143.1921875 54.81132813 142.2125 54.8046875 141.203125 C54.79421387 140.30239258 54.78374023 139.40166016 54.77294922 138.47363281 C55.02434749 135.73474331 55.38767415 134.231706 57 132 C60.4333616 130.33912549 63.17855128 129.75292111 66.97387695 129.77294922 C68.41480461 129.77317581 68.41480461 129.77317581 69.88484192 129.77340698 C70.9089769 129.78372955 71.93311188 129.79405212 72.98828125 129.8046875 C74.57578438 129.80893234 74.57578438 129.80893234 76.19535828 129.81326294 C79.56785498 129.8244371 82.94008387 129.84953693 86.3125 129.875 C88.6022097 129.88503336 90.89192357 129.89415859 93.18164062 129.90234375 C98.78786324 129.92436745 104.39388625 129.95887859 110 130 C110 125.71 110 121.42 110 117 C107.958125 116.38125 107.958125 116.38125 105.875 115.75 C96.86021559 112.68412948 90.60704333 106.79343552 85.6015625 98.75390625 C81.63030248 90.40299422 81.5132876 80.29457658 83.98828125 71.48046875 C87.78565949 61.94587509 93.13909556 56.13138944 102 51 C104.71628517 50.00431991 107.1319429 49.47800952 110 49 C110 44.38 110 39.76 110 35 C42.35 35 -25.3 35 -95 35 C-95 39.62 -95 44.24 -95 49 C-93.02 49.33 -91.04 49.66 -89 50 C-79.29151677 54.33655588 -72.62964948 61.13735515 -68.7109375 70.984375 C-65.55701841 79.92625551 -66.34256755 89.32745184 -70 98 C-74.25249628 106.31417541 -80.68213772 112.52116082 -89.4375 115.9375 C-93 117 -93 117 -95 117 C-95 121.29 -95 125.58 -95 130 C-93.57212158 129.98952637 -92.14424316 129.97905273 -90.6730957 129.96826172 C-85.37103791 129.93203741 -80.06899105 129.90909055 -74.7668457 129.89013672 C-72.47288167 129.88008472 -70.17893043 129.8664411 -67.88500977 129.84912109 C-64.58606812 129.82483791 -61.28729603 129.81350877 -57.98828125 129.8046875 C-56.96414627 129.79436493 -55.94001129 129.78404236 -54.88484192 129.77340698 C-53.92422348 129.77325592 -52.96360504 129.77310486 -51.97387695 129.77294922 C-51.13226517 129.768508 -50.29065338 129.76406677 -49.42353821 129.75949097 C-45.5095416 130.14791131 -42.78287869 131.21712131 -40 134 C-39.77294922 136.43017578 -39.77294922 136.43017578 -39.8046875 139.4453125 C-39.81435547 141.05986328 -39.81435547 141.05986328 -39.82421875 142.70703125 C-39.84935547 144.39892578 -39.84935547 144.39892578 -39.875 146.125 C-39.88402344 147.26066406 -39.89304687 148.39632812 -39.90234375 149.56640625 C-39.92596902 152.37781299 -39.95890987 155.18880298 -40 158 C-38.6682373 157.97643433 -38.6682373 157.97643433 -37.30957031 157.95239258 C-34.00710179 157.90118314 -30.7050568 157.86361144 -27.40234375 157.83520508 C-25.97454154 157.82014319 -24.5467854 157.79968938 -23.11914062 157.77368164 C-21.06368627 157.73718158 -19.00884495 157.72024834 -16.953125 157.70703125 C-15.71723633 157.6913208 -14.48134766 157.67561035 -13.20800781 157.65942383 C-9.74174478 158.02741751 -8.37009562 158.47884099 -6 161 C-5.11110434 163.77156363 -4.86639747 166.31478367 -4.83886719 169.21435547 C-4.82925964 170.03555878 -4.8196521 170.85676208 -4.80975342 171.70285034 C-4.8033786 173.02169724 -4.8033786 173.02169724 -4.796875 174.3671875 C-4.79117493 175.27953156 -4.78547485 176.19187561 -4.77960205 177.13186646 C-4.77016695 179.06006719 -4.76362399 180.98828395 -4.75976562 182.91650391 C-4.75005815 185.85738383 -4.71901998 188.79756517 -4.6875 191.73828125 C-4.68096957 193.6145792 -4.67571925 195.49088213 -4.671875 197.3671875 C-4.6595282 198.2423703 -4.6471814 199.1175531 -4.63446045 200.01925659 C-4.65274847 205.06190221 -5.07783977 208.68694628 -8 213 C-11.49246785 214.16415595 -14.27622466 214.15569285 -17.96240234 214.19287109 C-18.66681961 214.20104858 -19.37123688 214.20922607 -20.09700012 214.21765137 C-22.42663734 214.24245142 -24.75621393 214.25900577 -27.0859375 214.2734375 C-27.88232258 214.27876118 -28.67870766 214.28408485 -29.49922562 214.28956985 C-33.71301561 214.31627561 -37.92677622 214.33566032 -42.140625 214.35009766 C-45.62689386 214.36344783 -49.11257892 214.39132294 -52.59863281 214.43212891 C-56.81022086 214.48142514 -61.02127861 214.50621441 -65.23314285 214.51332474 C-66.83673518 214.52003893 -68.4403156 214.53526557 -70.04374313 214.55921555 C-72.2893925 214.59084968 -74.53299477 214.59090818 -76.77880859 214.58349609 C-78.05549408 214.59158295 -79.33217957 214.5996698 -80.64755249 214.60800171 C-84.93196824 213.83097773 -86.39693761 212.43809594 -89 209 C-89.62818909 206.68603516 -89.62818909 206.68603516 -89.63110352 204.2890625 C-89.64363663 203.38462402 -89.65616974 202.48018555 -89.66908264 201.54833984 C-89.65582443 200.5836377 -89.64256622 199.61893555 -89.62890625 198.625 C-89.63131821 197.62291504 -89.63373016 196.62083008 -89.63621521 195.58837891 C-89.63523744 193.47359248 -89.62186062 191.35878025 -89.59692383 189.24414062 C-89.56261494 186.01083248 -89.57626937 182.78025801 -89.59570312 179.546875 C-89.58880446 177.48957172 -89.5791319 175.43227549 -89.56640625 173.375 C-89.57384605 171.92794678 -89.57384605 171.92794678 -89.58143616 170.45166016 C-89.50918304 166.32516842 -89.30552731 163.60019831 -87.4128418 159.88208008 C-84.10231941 157.29978552 -81.99749689 157.4262808 -77.828125 157.51171875 C-77.1457074 157.51879349 -76.46328979 157.52586823 -75.76019287 157.53315735 C-73.58899439 157.56105979 -71.42041332 157.62377747 -69.25 157.6875 C-67.77477694 157.71258883 -66.29951329 157.735401 -64.82421875 157.75585938 C-61.21530096 157.81086863 -57.60790609 157.89710693 -54 158 C-54 153.71 -54 149.42 -54 145 C-85.68 145 -117.36 145 -150 145 C-150 149.29 -150 153.58 -150 158 C-149.08186523 157.97381592 -148.16373047 157.94763184 -147.21777344 157.9206543 C-143.8033882 157.83531627 -140.39013939 157.77269926 -136.97509766 157.7253418 C-135.49867854 157.70023263 -134.02238332 157.66613745 -132.54638672 157.62280273 C-130.4212386 157.561982 -128.29773606 157.53375791 -126.171875 157.51171875 C-124.8940918 157.48553467 -123.61630859 157.45935059 -122.29980469 157.43237305 C-119 158 -119 158 -116.5871582 159.88208008 C-114.29525936 164.38443973 -114.40794722 168.38671059 -114.43359375 173.375 C-114.42739517 174.37708496 -114.42119659 175.37916992 -114.41481018 176.41162109 C-114.40771893 178.52635732 -114.41087384 180.64114945 -114.42358398 182.75585938 C-114.43745422 185.98932657 -114.40336201 189.2199019 -114.36523438 192.453125 C-114.36428319 194.51041737 -114.36614199 196.56771337 -114.37109375 198.625 C-114.35783554 199.58970215 -114.34457733 200.5544043 -114.33091736 201.54833984 C-114.34971703 202.90499756 -114.34971703 202.90499756 -114.36889648 204.2890625 C-114.36985825 205.08006348 -114.37082001 205.87106445 -114.37181091 206.68603516 C-115.34385784 210.26661695 -117.09298037 211.75995461 -120 214 C-123.34571838 214.61473083 -123.34571838 214.61473083 -127.20532227 214.59936523 C-127.91163788 214.60330795 -128.61795349 214.60725067 -129.34567261 214.61131287 C-131.66998256 214.61800157 -133.99230799 214.58891179 -136.31640625 214.55859375 C-137.93635172 214.55434121 -139.55630329 214.5520148 -141.17625427 214.55152893 C-144.56659683 214.54537067 -147.95627685 214.52270502 -151.34643555 214.48706055 C-155.68991221 214.44175236 -160.0327899 214.42703221 -164.37648106 214.42332363 C-167.71967971 214.41889306 -171.06275296 214.40358632 -174.40589714 214.3844471 C-176.00745552 214.37557504 -177.60902723 214.36884012 -179.21060371 214.36428642 C-181.44865481 214.35523311 -183.68616746 214.33283448 -185.92407227 214.30639648 C-187.19694595 214.29575668 -188.46981964 214.28511688 -189.78126526 214.27415466 C-192.80921334 214.01625019 -194.5103945 213.68700917 -197 212 C-199.71260286 207.53268888 -199.28897801 202.5600519 -199.265625 197.5 C-199.26753845 196.58669922 -199.2694519 195.67339844 -199.27142334 194.73242188 C-199.27278126 192.80598677 -199.26911232 190.8795424 -199.26074219 188.953125 C-199.25003713 186.01020689 -199.26065084 183.0678992 -199.2734375 180.125 C-199.27211584 178.24999866 -199.2695533 176.37499769 -199.265625 174.5 C-199.26967346 173.62279297 -199.27372192 172.74558594 -199.27789307 171.84179688 C-199.21674121 163.84555605 -199.21674121 163.84555605 -197 160 C-193.32070555 157.54713704 -191.52622093 157.76771122 -187.14453125 157.8046875 C-186.48289474 157.8075174 -185.82125824 157.81034729 -185.13957214 157.81326294 C-183.03036263 157.82444082 -180.92158075 157.84954019 -178.8125 157.875 C-177.38086552 157.88503293 -175.94922436 157.89415824 -174.51757812 157.90234375 C-171.01158023 157.92437205 -167.50583187 157.95888515 -164 158 C-164.01571045 157.2886792 -164.0314209 156.5773584 -164.04760742 155.84448242 C-164.10991915 152.62556896 -164.14897867 149.40678232 -164.1875 146.1875 C-164.21263672 145.06794922 -164.23777344 143.94839844 -164.26367188 142.79492188 C-164.27333984 141.72177734 -164.28300781 140.64863281 -164.29296875 139.54296875 C-164.3086792 138.55321045 -164.32438965 137.56345215 -164.34057617 136.54370117 C-164 134 -164 134 -162.73168945 132.21606445 C-159.45557049 129.91543727 -156.04743655 129.87619096 -152.13964844 129.88647461 C-151.17895447 129.88655014 -150.2182605 129.88662567 -149.22845459 129.88670349 C-148.19915833 129.89186478 -147.16986206 129.89702606 -146.109375 129.90234375 C-144.51974945 129.90446617 -144.51974945 129.90446617 -142.89801025 129.90663147 C-139.51531138 129.91222618 -136.13267885 129.92477775 -132.75 129.9375 C-130.45573012 129.94251568 -128.16145921 129.94707847 -125.8671875 129.95117188 C-120.24476613 129.96219389 -114.62239431 129.97945493 -109 130 C-109 125.71 -109 121.42 -109 117 C-110.134375 116.79375 -111.26875 116.5875 -112.4375 116.375 C-120.55769136 114.31980113 -127.39072428 108.92796625 -132 102 C-136.99683739 92.69499192 -138.61190203 83.27333001 -135.875 72.9375 C-132.83300498 63.88258959 -127.13493565 56.28767002 -118.66015625 51.74609375 C-112.7565331 49 -112.7565331 49 -109 49 C-109.01571045 48.25838623 -109.0314209 47.51677246 -109.04760742 46.75268555 C-109.10990714 43.39770104 -109.14897507 40.04283814 -109.1875 36.6875 C-109.21263672 35.52025391 -109.23777344 34.35300781 -109.26367188 33.15039062 C-109.27333984 32.03212891 -109.28300781 30.91386719 -109.29296875 29.76171875 C-109.3086792 28.73006592 -109.32438965 27.69841309 -109.34057617 26.63549805 C-108.93973025 23.53361149 -108.42710897 22.88022091 -106 21 C-103.97541523 20.63085651 -103.97541523 20.63085651 -101.61506653 20.63923645 C-100.27103004 20.63305046 -100.27103004 20.63305046 -98.89984131 20.6267395 C-97.91944885 20.63752533 -96.9390564 20.64831116 -95.92895508 20.65942383 C-94.37748024 20.65876671 -94.37748024 20.65876671 -92.79466248 20.65809631 C-89.36942797 20.66018949 -85.94468045 20.68354598 -82.51953125 20.70703125 C-80.14727547 20.71262531 -77.77501622 20.7168963 -75.40275574 20.71989441 C-69.15388448 20.73135809 -62.90522184 20.76083857 -56.65643311 20.79400635 C-50.28205182 20.82467431 -43.90763689 20.83839275 -37.53320312 20.85351562 C-25.02202893 20.88570668 -12.51106444 20.93848724 0 21 C0 14.07 0 7.14 0 0 Z M-118.4375 71 C-121.94635756 75.89519093 -122.87917961 81.01953403 -122 87 C-119.84711227 93.60956653 -116.99081931 97.81241201 -110.8671875 101.16015625 C-105.6188785 103.52079733 -100.87498989 103.93502711 -95.4296875 102.1640625 C-89.20745628 99.39656264 -85.7955514 96.2152259 -83 90 C-81.25296368 84.75889104 -81.50764212 80.45245573 -83.25 75.3125 C-86.61539825 68.94228189 -90.09477637 65.21868869 -97 63 C-105.93008763 61.59670052 -112.83537242 63.86760004 -118.4375 71 Z M100.19921875 71.953125 C97.54310645 76.48668475 96.59223508 81.19146186 97.34765625 86.39453125 C99.32498061 93.34476719 103.09404661 98.30029141 109.3125 101.9375 C115.33887147 103.67391212 120.44077471 103.98969839 126.25 101.375 C132.27098029 97.93956989 135.70015466 93.00560969 137.61328125 86.42578125 C138.47749419 81.00480917 137.47183057 76.32809661 134.54296875 71.6953125 C130.47718256 66.68420808 126.39732551 63.62818936 119.83984375 62.69140625 C111.63990429 62.22725873 105.22789792 65.50539389 100.19921875 71.953125 Z M-184 173 C-184 181.58 -184 190.16 -184 199 C-166.18 199 -148.36 199 -130 199 C-130 190.42 -130 181.84 -130 173 C-147.82 173 -165.64 173 -184 173 Z M-74 173 C-74 181.58 -74 190.16 -74 199 C-56.18 199 -38.36 199 -20 199 C-20 190.42 -20 181.84 -20 173 C-37.82 173 -55.64 173 -74 173 Z M36 173 C36 181.58 36 190.16 36 199 C53.82 199 71.64 199 90 199 C90 190.42 90 181.84 90 173 C72.18 173 54.36 173 36 173 Z M145 173 C145 181.58 145 190.16 145 199 C162.82 199 180.64 199 199 199 C199 190.42 199 181.84 199 173 C181.18 173 163.36 173 145 173 Z " fill="#FFFF00" transform="translate(581,616)"/>
<path d="M0 0 C1.43622963 -0.01496269 1.43622963 -0.01496269 2.901474 -0.03022766 C4.46709579 -0.03122467 4.46709579 -0.03122467 6.06434631 -0.03224182 C7.168806 -0.04056534 8.27326569 -0.04888885 9.41119385 -0.0574646 C13.06652843 -0.08158417 16.72168471 -0.09033853 20.37709045 -0.09693909 C22.9153041 -0.10590276 25.4535172 -0.11502456 27.99172974 -0.1242981 C33.31380327 -0.14079519 38.63580985 -0.14852282 43.957901 -0.15138245 C50.105401 -0.15501919 56.25240219 -0.18492731 62.3997497 -0.22678703 C68.31896014 -0.26567723 74.23802075 -0.27697525 80.1573658 -0.2781086 C82.67361217 -0.28232016 85.18985862 -0.29479164 87.70602226 -0.31562614 C91.22304332 -0.34243341 94.73868206 -0.33774598 98.25575256 -0.32521057 C99.2974762 -0.34004486 100.33919983 -0.35487915 101.41249084 -0.37016296 C106.22755083 -0.32120721 108.47602676 -0.29285897 112.41030884 2.68661499 C114.2247467 5.27415466 114.2247467 5.27415466 114.2247467 7.27415466 C115.1125885 7.2532074 116.0004303 7.23226013 116.91517639 7.2106781 C120.21769126 7.14239789 123.5194534 7.09230596 126.82240295 7.0544281 C128.25025791 7.03434484 129.67803095 7.00707214 131.10560608 6.97239685 C133.16115038 6.92372797 135.21560526 6.90115499 137.2716217 6.88352966 C138.50751038 6.8625824 139.74339905 6.84163513 141.01673889 6.8200531 C144.2247467 7.27415466 144.2247467 7.27415466 146.65931702 8.86106873 C148.85274685 12.2422073 148.64999974 14.28708373 148.2247467 18.27415466 C147.58991945 21.05017074 146.73032405 23.71727321 145.8106842 26.41087341 C145.55856171 27.17156631 145.30643921 27.93225922 145.04667664 28.71600342 C144.51202086 30.32035064 143.97215769 31.92297086 143.42738342 33.52391052 C142.60954587 35.93279194 141.81247129 38.34780835 141.01771545 40.76438904 C134.96657087 58.92367077 128.00786548 74.07767211 110.2247467 83.27415466 C105.14754798 85.49914292 100.80436731 87.27415466 95.2247467 87.27415466 C94.96951233 87.84649841 94.71427795 88.41884216 94.4513092 89.00852966 C90.4162966 96.46173767 83.58638693 101.02534652 76.2247467 104.77415466 C75.24707336 105.28123962 75.24707336 105.28123962 74.24964905 105.79856873 C68.88991068 108.37775111 65.58161128 108.56783638 59.2247467 109.27415466 C59.2247467 116.53415466 59.2247467 123.79415466 59.2247467 131.27415466 C61.75388733 131.18714294 61.75388733 131.18714294 64.3341217 131.09837341 C66.54763572 131.05147693 68.76117964 131.00597666 70.9747467 130.96165466 C72.64150452 130.89881287 72.64150452 130.89881287 74.3419342 130.83470154 C75.41185608 130.81858826 76.48177795 130.80247498 77.5841217 130.78587341 C79.06090393 130.74659729 79.06090393 130.74659729 80.56752014 130.70652771 C83.2247467 131.27415466 83.2247467 131.27415466 85.2794342 133.24046326 C87.78199745 137.14318049 89.91144936 141.16030419 91.9903717 145.30149841 C92.42863281 146.16803543 92.86689392 147.03457245 93.31843567 147.92736816 C94.23925113 149.75386179 95.1568542 151.58197806 96.07142639 153.41160583 C97.47153095 156.20523825 98.89055795 158.98870494 100.3106842 161.77220154 C101.20508861 163.55221046 102.09835667 165.33279091 102.9903717 167.11399841 C103.41529907 167.9422966 103.84022644 168.77059479 104.2780304 169.62399292 C106.41028737 173.93929468 108.05622621 177.35037729 107.2247467 182.27415466 C106.31147766 184.41014099 106.31147766 184.41014099 104.2247467 186.27415466 C100.95538463 186.89664409 97.70384338 186.80939359 94.38490295 186.77586365 C93.37491241 186.78126663 92.36492187 186.78666962 91.32432556 186.79223633 C87.97833656 186.80476646 84.6332008 186.7882036 81.2872467 186.77024841 C78.96701512 186.7704033 76.64678328 186.77189057 74.32655334 186.7746582 C69.46079591 186.77604412 64.59533255 186.76345156 59.72962952 186.7407074 C53.48475307 186.71232252 47.2403655 186.71505768 40.99545288 186.72779751 C36.20342312 186.73474415 31.41150685 186.72697697 26.61949158 186.71454048 C24.31653783 186.71001612 22.01357194 186.70969773 19.71061707 186.71360588 C16.49501972 186.7165081 13.28010204 186.70005796 10.06459045 186.6782074 C9.10761261 186.68270905 8.15063477 186.68721069 7.16465759 186.69184875 C6.28979706 186.68194412 5.41493652 186.67203949 4.51356506 186.66183472 C3.37316017 186.65818987 3.37316017 186.65818987 2.2097168 186.6544714 C-0.32371938 186.16906954 -1.19540408 185.27627565 -2.7752533 183.27415466 C-3.74036219 180.41704722 -3.9498921 178.83794969 -3.05357361 175.94432068 C-2.65750916 175.14695496 -2.2614447 174.34958923 -1.8533783 173.52806091 C-1.40986023 172.61822449 -0.96634216 171.70838806 -0.50938416 170.77098083 C-0.01962097 169.8026532 0.47014221 168.83432556 0.9747467 167.83665466 C1.46902161 166.83416687 1.96329651 165.83167908 2.47254944 164.79881287 C3.51443878 162.69083483 4.56268208 160.58598694 5.61683655 158.4841156 C7.20683337 155.30991605 8.77497407 152.12575717 10.33802795 148.93821716 C11.3201898 146.94558034 12.30323048 144.9533764 13.2872467 142.96165466 C13.98382385 141.54831848 13.98382385 141.54831848 14.69447327 140.10643005 C15.12856506 139.23752136 15.56265686 138.36861267 16.00990295 137.47337341 C16.39025696 136.70855652 16.77061096 135.94373962 17.16249084 135.15574646 C18.2247467 133.27415466 18.2247467 133.27415466 20.2247467 131.27415466 C22.65492249 131.04710388 22.65492249 131.04710388 25.6700592 131.07884216 C27.28460999 131.08851013 27.28460999 131.08851013 28.93177795 131.09837341 C30.05970764 131.11513123 31.18763733 131.13188904 32.3497467 131.14915466 C33.48541077 131.1581781 34.62107483 131.16720154 35.79115295 131.17649841 C38.60244007 131.20012267 41.41361932 131.23599456 44.2247467 131.27415466 C44.2247467 124.01415466 44.2247467 116.75415466 44.2247467 109.27415466 C41.2547467 108.94415466 38.2847467 108.61415466 35.2247467 108.27415466 C26.44993008 105.63358485 18.37782841 99.95464338 12.2247467 93.27415466 C11.4616217 92.55227966 10.6984967 91.83040466 9.9122467 91.08665466 C8.2247467 89.27415466 8.2247467 89.27415466 8.2247467 87.27415466 C7.23087952 87.1800531 6.23701233 87.08595154 5.21302795 86.98899841 C-6.65010979 85.26870928 -17.42677179 77.31916968 -24.7752533 68.27415466 C-31.10241119 59.28633653 -34.52706066 49.44974003 -37.91246033 39.09080505 C-38.7817502 36.44185695 -39.68139358 33.80454228 -40.58384705 31.16673279 C-41.14948373 29.46747258 -41.71335067 27.76762203 -42.2752533 26.06712341 C-42.54281433 25.28781967 -42.81037537 24.50851593 -43.08604431 23.70559692 C-44.62317404 18.91127965 -45.21551913 15.2611527 -43.7752533 10.27415466 C-41.47902728 7.56710116 -40.10079211 7.30871529 -36.56724548 6.93357849 C-35.33135681 6.94928894 -34.09546814 6.96499939 -32.8221283 6.98118591 C-31.83179596 6.98755318 -31.83179596 6.98755318 -30.82145691 6.99404907 C-28.72229939 7.01078032 -26.62411833 7.04841915 -24.5252533 7.08665466 C-23.09818387 7.10170882 -21.67109933 7.11539595 -20.2440033 7.12767029 C-16.75410513 7.16066465 -13.26477459 7.21240724 -9.7752533 7.27415466 C-9.6927533 6.49040466 -9.6102533 5.70665466 -9.5252533 4.89915466 C-8.7752533 2.27415466 -8.7752533 2.27415466 -7.02683163 1.12722683 C-4.52673549 0.17999688 -2.66901079 0.01494563 0 0 Z M6.2247467 15.27415466 C6.81636179 22.3735357 7.40011423 29.31833913 8.4591217 36.33665466 C8.57902466 37.13466492 8.69892761 37.93267517 8.82246399 38.75486755 C9.07554093 40.42215003 9.33106486 42.08906287 9.58900452 43.75559998 C9.84600407 45.43357931 10.09601712 47.11264371 10.33900452 48.79270935 C12.51822885 63.85931423 15.37757371 76.72247285 27.2247467 87.27415466 C37.22425442 94.63257103 46.94670899 96.28573347 59.2247467 95.27415466 C69.98113317 92.91659051 79.05143598 86.3724388 85.2247467 77.27415466 C88.97309615 70.44198561 90.42331074 63.46127432 91.7247467 55.83665466 C91.91166077 54.80733826 92.09857483 53.77802185 92.29115295 52.71751404 C94.50552321 40.27451297 96.30301787 27.76539211 98.2247467 15.27415466 C67.8647467 15.27415466 37.5047467 15.27415466 6.2247467 15.27415466 Z M-26.7752533 22.27415466 C-20.15397905 48.44840388 -20.15397905 48.44840388 -2.7752533 68.27415466 C-2.1152533 68.27415466 -1.4552533 68.27415466 -0.7752533 68.27415466 C-2.76626421 52.87822695 -5.14526802 37.57345989 -7.7752533 22.27415466 C-14.0452533 22.27415466 -20.3152533 22.27415466 -26.7752533 22.27415466 Z M112.2247467 22.27415466 C110.60763387 27.7957558 110.60763387 27.7957558 109.44691467 33.32591248 C109.32694122 34.03644775 109.20696777 34.74698303 109.08335876 35.47904968 C108.96243866 36.22096558 108.84151855 36.96288147 108.7169342 37.72727966 C108.58658783 38.50931763 108.45624146 39.29135559 108.32194519 40.09709167 C108.04948644 41.73717165 107.7789954 43.37757962 107.51039124 45.01829529 C107.09854035 47.53151616 106.67969676 50.04349961 106.25990295 52.55540466 C105.99516866 54.15429494 105.73083166 55.75325105 105.4669342 57.35227966 C105.34196564 58.10229248 105.21699707 58.8523053 105.08824158 59.62504578 C104.612463 62.54631862 104.2247467 65.3086482 104.2247467 68.27415466 C108.70754857 66.86527408 111.08417084 64.72878811 114.2247467 61.27415466 C115.4622467 60.00571716 115.4622467 60.00571716 116.7247467 58.71165466 C122.38918353 51.70610507 124.6882951 42.12966242 127.5372467 33.71165466 C127.80400208 32.9256488 128.07075745 32.13964294 128.34559631 31.32981873 C129.37677461 28.2088174 130.2247467 25.58325981 130.2247467 22.27415466 C124.2847467 22.27415466 118.3447467 22.27415466 112.2247467 22.27415466 Z M29.2247467 145.27415466 C20.39860346 158.19938547 20.39860346 158.19938547 16.2247467 172.27415466 C39.9847467 172.27415466 63.7447467 172.27415466 88.2247467 172.27415466 C81.82027664 158.72765318 81.82027664 158.72765318 75.2247467 145.27415466 C60.0447467 145.27415466 44.8647467 145.27415466 29.2247467 145.27415466 Z " fill="#FFFF00" transform="translate(536.7752532958984,416.72584533691406)"/>
<path d="M0 0 C3.5625 0.5 3.5625 0.5 5.8125 2.4375 C8.02277559 6.30548228 9.33505106 10.23182526 10.5625 14.5 C11.38234375 14.60957031 12.2021875 14.71914063 13.046875 14.83203125 C14.12453125 14.99058594 15.2021875 15.14914062 16.3125 15.3125 C17.91351562 15.53873047 17.91351562 15.53873047 19.546875 15.76953125 C22.66208088 16.52412128 24.26926684 17.29269595 26.5625 19.5 C27.65235918 22.84223483 27.905547 24.66382294 26.5625 27.9375 C24.5625 30.5 24.5625 30.5 22.765625 31.875 C20.53633092 33.65843527 19.0369219 35.03704523 17.5625 37.5 C17.42629372 41.22864689 17.80034235 44.61167897 18.390625 48.29296875 C18.5625 51.5 18.5625 51.5 17.27734375 53.86328125 C14.71068929 56.31300385 13.10162714 56.5 9.5625 56.5 C6.02133438 55.15585814 2.77413259 53.30612652 -0.375 51.2109375 C-2.50021141 50.22839267 -2.50021141 50.22839267 -4.8046875 51.43359375 C-5.63226562 51.92988281 -6.45984375 52.42617188 -7.3125 52.9375 C-10.60452417 54.71684149 -12.07017907 55.5 -15.875 55.5 C-18.55355632 54.45470973 -19.66630559 53.72037339 -21.4375 51.5 C-21.765625 49.51953125 -21.765625 49.51953125 -21.6875 47.3125 C-21.67074219 46.51714844 -21.65398438 45.72179687 -21.63671875 44.90234375 C-21.44886421 42.63703903 -21.00421924 40.58580743 -20.5 38.375 C-20.0486 34.61038853 -20.0486 34.61038853 -21.89453125 32.515625 C-23.14602156 31.28197671 -24.43881784 30.08851261 -25.7734375 28.9453125 C-28.15559641 26.87630124 -28.41207926 25.79233854 -28.6875 22.625 C-28.40178527 19.0535659 -27.96689564 17.98206807 -25.4375 15.5 C-22.51171875 15.0234375 -22.51171875 15.0234375 -19.125 14.875 C-14.12849355 14.32270414 -14.12849355 14.32270414 -10.35546875 11.26171875 C-8.78829673 8.60999896 -8.78829673 8.60999896 -7.5859375 5.91015625 C-5.66232482 1.87318679 -4.4826001 0.65201456 0 0 Z M-1.4375 25.5 C-3.74037793 26.19140351 -3.74037793 26.19140351 -5.4375 27.5 C-5.1075 29.81 -4.7775 32.12 -4.4375 34.5 C-2.4575 34.5 -0.4775 34.5 1.5625 34.5 C2.2225 32.52 2.8825 30.54 3.5625 28.5 C1.31082154 26.78184562 1.31082154 26.78184562 -1.4375 25.5 Z " fill="#FFFF00" transform="translate(589.4375,437.5)"/>
<path d="M0 0 C3.23396108 3.06491312 5.85979531 6.35242754 8.5 9.9375 C11.2665516 13.68466151 14.06741188 17.38091966 17 21 C15.55218207 24.44428265 13.72305391 26.36130962 10.875 28.75 C9.78832031 29.67039062 9.78832031 29.67039062 8.6796875 30.609375 C8.12539063 31.06828125 7.57109375 31.5271875 7 32 C2.18401488 28.3025203 -1.24506934 24.37450066 -4.75 19.4375 C-5.23082031 18.77814453 -5.71164062 18.11878906 -6.20703125 17.43945312 C-8.41874886 14.37446842 -10.36759278 11.41896541 -12 8 C-10.37615858 6.85252535 -8.75088944 5.7070709 -7.125 4.5625 C-6.22007812 3.92441406 -5.31515625 3.28632812 -4.3828125 2.62890625 C-2 1 -2 1 0 0 Z " fill="#FFFF00" transform="translate(466,548)"/>
<path d="M0 0 C3.99012371 0.55989303 6.5255052 1.75669768 9.8125 4.0625 C10.60269531 4.61035156 11.39289062 5.15820312 12.20703125 5.72265625 C12.79871094 6.14417969 13.39039063 6.56570313 14 7 C10.24802605 13.78298035 5.95927041 19.73521609 0.953125 25.65234375 C-1.10199343 28.03846135 -1.10199343 28.03846135 -3 31 C-8.32697239 29.54718935 -11.36402802 25.91888622 -15 22 C-13.49826356 18.64227134 -11.53633598 16.07039961 -9.1875 13.25 C-5.72990322 9.00515441 -2.7891078 4.70661942 0 0 Z " fill="#FFFF00" transform="translate(710,548)"/>
<path d="M0 0 C3.79620155 1.26540052 4.48678188 2.78218431 6.6875 6.0625 C7.31011719 6.98160156 7.93273437 7.90070312 8.57421875 8.84765625 C9.27998047 9.91306641 9.27998047 9.91306641 10 11 C6.3093114 15.222228 1.74974785 17.82323512 -3 20.6875 C-3.80695312 21.18572266 -4.61390625 21.68394531 -5.4453125 22.19726562 C-12.01541071 26.19244911 -12.01541071 26.19244911 -16 27 C-17.03307771 25.23628182 -18.05112049 23.46374967 -19.0625 21.6875 C-19.63097656 20.70136719 -20.19945312 19.71523438 -20.78515625 18.69921875 C-22 16 -22 16 -21 13 C-18.62799421 11.41183829 -16.28851918 9.96831563 -13.8125 8.5625 C-12.48484596 7.79440356 -11.15801268 7.02488657 -9.83203125 6.25390625 C-9.18572754 5.88281738 -8.53942383 5.51172852 -7.87353516 5.12939453 C-6.07938738 4.04785588 -4.39898395 2.87501875 -2.69921875 1.65234375 C-1.80847656 1.10707031 -0.91773438 0.56179688 0 0 Z " fill="#FFFF00" transform="translate(675,587)"/>
<path d="M0 0 C0.65484375 0.42410156 1.3096875 0.84820313 1.984375 1.28515625 C8.8821952 5.71807742 15.88968988 9.91746591 23 14 C22.41892368 17.7602985 21.34800504 20.53035032 19.4375 23.8125 C18.98246094 24.60269531 18.52742187 25.39289062 18.05859375 26.20703125 C17.70925781 26.79871094 17.35992188 27.39039063 17 28 C7.94693371 23.84048306 0.03811959 18.83411906 -8 13 C-7.39665691 9.29496359 -5.77525763 7.14031852 -3.4375 4.25 C-2.79683594 3.45078125 -2.15617187 2.6515625 -1.49609375 1.828125 C-1.00238281 1.22484375 -0.50867188 0.6215625 0 0 Z " fill="#FFFF00" transform="translate(502,587)"/>
<path d="M0 0 C0.98469803 3.37341094 1.96176103 6.74898782 2.9375 10.125 C3.35418945 11.55199219 3.35418945 11.55199219 3.77929688 13.0078125 C5.11839694 17.6543284 6.36079453 22.19382217 7 27 C5.04350603 27.83764268 3.08474444 28.66999059 1.125 29.5 C0.03445313 29.9640625 -1.05609375 30.428125 -2.1796875 30.90625 C-5 32 -5 32 -7 32 C-13.76595745 12.65957447 -13.76595745 12.65957447 -15 3 C-13.0636296 2.49564306 -11.12585854 1.99666126 -9.1875 1.5 C-8.10855469 1.2215625 -7.02960938 0.943125 -5.91796875 0.65625 C-3 0 -3 0 0 0 Z " fill="#FFFF00" transform="translate(448,499)"/>
<path d="M0 0 C1.40236082 9.75392035 2.22467351 19.11436574 2 29 C-2.95 29 -7.9 29 -13 29 C-13.33670126 25.45862428 -13.66947726 21.91695318 -14 18.375 C-14.09539063 17.37597656 -14.19078125 16.37695312 -14.2890625 15.34765625 C-14.73400626 10.54861994 -15.13177309 5.82618926 -15 1 C-13.44033408 0.63355422 -11.87707349 0.28239138 -10.3125 -0.0625 C-9.44238281 -0.25972656 -8.57226562 -0.45695312 -7.67578125 -0.66015625 C-4.83998724 -1.02032279 -2.75210018 -0.70909969 0 0 Z " fill="#FFFF00" transform="translate(745,444)"/>
<path d="M0 0 C2.14655501 0.30750371 4.29223285 0.6211366 6.4375 0.9375 C7.63246094 1.11152344 8.82742188 1.28554688 10.05859375 1.46484375 C13 2 13 2 14 3 C13.5664816 9.87436315 12.00776817 16.01545705 9.9375 22.5625 C9.65583984 23.47580078 9.37417969 24.38910156 9.08398438 25.33007812 C8.39648178 27.55572212 7.70174718 29.77881482 7 32 C5.41531323 31.54636829 3.83230076 31.08688548 2.25 30.625 C0.92742188 30.24214844 0.92742188 30.24214844 -0.421875 29.8515625 C-2.76080572 29.0790066 -4.83442562 28.16374324 -7 27 C-5.66001384 20.74464405 -4.11748273 14.59190847 -2.375 8.4375 C-2.14554688 7.61958984 -1.91609375 6.80167969 -1.6796875 5.95898438 C-1.1219512 3.9720488 -0.56128904 1.98593489 0 0 Z " fill="#FFFF00" transform="translate(730,498)"/>
<path d="M0 0 C2.31386295 0.28064918 4.62609008 0.57481689 6.9375 0.875 C8.86916016 1.11863281 8.86916016 1.11863281 10.83984375 1.3671875 C12.40412109 1.68042969 12.40412109 1.68042969 14 2 C15.40816621 4.81633242 14.81954247 6.76697001 14.44140625 9.8828125 C14.30283203 11.04941406 14.16425781 12.21601563 14.02148438 13.41796875 C13.79428711 15.25294922 13.79428711 15.25294922 13.5625 17.125 C13.41490234 18.35605469 13.26730469 19.58710938 13.11523438 20.85546875 C12.74890182 23.90430101 12.37514164 26.95223911 12 30 C7.38 30.33 2.76 30.66 -2 31 C-2.1982842 20.46890579 -2.31290989 10.34614155 0 0 Z " fill="#FFFF00" transform="translate(433,443)"/>
</svg>
